<?xml version="1.0" standalone="no"?>
<!DOCTYPE svg PUBLIC "-//W3C//DTD SVG 20010904//EN"
 "http://www.w3.org/TR/2001/REC-SVG-20010904/DTD/svg10.dtd">
<svg version="1.0" xmlns="http://www.w3.org/2000/svg"
 width="1075.000000pt" height="1280.000000pt" viewBox="0 0 1075.000000 1280.000000"
 preserveAspectRatio="xMidYMid meet">
<metadata>
Created by potrace 1.15, written by Peter Selinger 2001-2017
</metadata>
<g transform="translate(0.000000,1280.000000) scale(0.100000,-0.100000)"
fill="#ffffff" stroke="none">
<path d="M7735 12793 c-233 -33 -542 -187 -824 -413 -270 -215 -574 -559 -711
-802 -17 -32 -34 -58 -37 -58 -3 0 -53 16 -112 36 -557 187 -1282 265 -1851
199 -283 -33 -586 -112 -839 -219 -47 -20 -85 -35 -86 -33 -22 38 -127 186
-184 257 -100 126 -371 397 -497 497 -264 209 -531 350 -756 399 -90 20 -264
22 -338 5 -285 -68 -495 -350 -555 -747 -23 -148 -23 -469 -1 -669 53 -472
187 -907 361 -1176 42 -65 46 -75 34 -94 -70 -113 -177 -313 -306 -575 -358
-727 -418 -833 -631 -1120 -256 -343 -383 -605 -398 -817 -8 -102 2 -160 49
-282 38 -101 73 -139 219 -238 245 -167 933 -531 1351 -715 431 -189 900 -349
1393 -473 97 -24 179 -46 181 -49 3 -2 -25 -80 -60 -173 -188 -488 -458 -1299
-562 -1690 l-28 -102 -99 50 c-212 107 -415 155 -608 146 -197 -10 -356 -70
-511 -195 -287 -231 -439 -606 -439 -1086 0 -425 106 -744 363 -1086 80 -108
342 -372 435 -440 33 -25 61 -48 62 -51 0 -3 -71 -53 -157 -109 -252 -165
-365 -296 -380 -442 -23 -220 208 -320 730 -318 l218 1 33 -43 c58 -76 144
-124 249 -138 68 -10 163 3 216 28 35 17 38 17 79 -1 104 -45 239 -41 341 11
l54 27 56 -28 c159 -78 353 -42 469 89 l49 55 114 -16 c304 -42 819 -57 1179
-35 158 11 503 46 545 56 15 4 25 -4 40 -31 30 -56 117 -131 183 -155 112 -43
245 -35 341 21 l34 20 71 -33 c65 -30 79 -33 166 -32 73 0 108 5 151 22 l56
22 49 -22 c40 -18 67 -22 144 -22 117 0 185 24 260 91 l51 46 157 -7 c172 -8
391 5 510 30 284 59 379 201 276 412 -33 67 -127 169 -213 230 -56 40 -383
255 -437 288 -17 10 -9 22 84 119 314 329 567 723 680 1060 90 270 110 561 52
771 -11 41 -20 76 -20 78 0 3 53 32 118 67 413 219 766 472 1115 801 124 117
128 120 147 103 11 -10 22 -16 24 -14 31 36 215 277 279 366 589 821 859 1543
884 2363 l6 204 -148 -152 c-442 -456 -830 -652 -1570 -796 -71 -14 -247 -46
-389 -71 -143 -25 -261 -47 -263 -48 -1 -2 2 -18 7 -37 5 -19 9 -34 7 -35 -1
0 -51 -16 -112 -34 -333 -99 -667 -275 -945 -497 -109 -87 -347 -325 -434
-434 -141 -177 -288 -416 -376 -612 -19 -43 -38 -78 -41 -78 -4 0 -10 11 -13
24 -13 54 -162 392 -256 581 -112 227 -208 399 -317 564 -41 62 -72 115 -69
118 2 3 81 18 175 33 663 112 1326 333 1976 658 511 255 1088 610 1262 776
l87 82 -18 50 c-22 61 -22 55 9 143 115 324 -5 777 -365 1374 -53 89 -143 234
-200 321 -56 88 -179 282 -273 430 -93 149 -225 353 -293 454 -68 101 -124
185 -124 188 0 3 22 32 49 64 229 275 403 816 451 1404 15 176 8 450 -14 581
-65 385 -280 661 -561 720 -65 14 -191 17 -260 8z"/>
</g>
</svg>
